ISO-10303-21;
HEADER;
FILE_DESCRIPTION (( 'STEP AP214' ),
    '1' );
FILE_NAME ('Display_Case_cap.STEP',
    '2026-02-23T13:20:51',
    ( 'ktuanwong@gmail.com' ),
    ( '' ),
    'SwSTEP 2.0',
    'SolidWorks 2022',
    '' );
FILE_SCHEMA (( 'AUTOMOTIVE_DESIGN' ));
ENDSEC;

DATA;
#1 = LINE ( 'NONE', #662, #144 ) ;
#2 = LINE ( 'NONE', #245, #45 ) ;
#3 = DIRECTION ( 'NONE',  ( 1.000000000000000000, 0.000000000000000000, 0.000000000000000000 ) ) ;
#4 = PLANE ( 'NONE',  #316 ) ;
#5 = LINE ( 'NONE', #247, #287 ) ;
#6 = CARTESIAN_POINT ( 'NONE',  ( -48.00000000000000000, 9.000000000000000000, 5.000000000000000888 ) ) ;
#7 = FACE_OUTER_BOUND ( 'NONE', #262, .T. ) ;
#8 = VECTOR ( 'NONE', #535, 1000.000000000000000 ) ;
#9 = VECTOR ( 'NONE', #136, 1000.000000000000000 ) ;
#10 = FACE_BOUND ( 'NONE', #551, .T. ) ;
#11 = DIRECTION ( 'NONE',  ( 0.000000000000000000, -1.000000000000000000, 0.000000000000000000 ) ) ;
#12 = EDGE_LOOP ( 'NONE', ( #279, #736, #563, #97 ) ) ;
#13 = CARTESIAN_POINT ( 'NONE',  ( 33.37500000000000000, -3.250000000000000444, 4.000000000000000000 ) ) ;
#14 = EDGE_LOOP ( 'NONE', ( #733, #500, #605, #76 ) ) ;
#15 = VECTOR ( 'NONE', #429, 1000.000000000000000 ) ;
#16 = CARTESIAN_POINT ( 'NONE',  ( -43.00000000000000000, 9.000000000000000000, 5.000000000000000888 ) ) ;
#17 = AXIS2_PLACEMENT_3D ( 'NONE', #289, #654, #299 ) ;
#18 = ORIENTED_EDGE ( 'NONE', *, *, #487, .T. ) ;
#19 = ORIENTED_EDGE ( 'NONE', *, *, #616, .F. ) ;
#20 = VERTEX_POINT ( 'NONE', #328 ) ;
#21 = ORIENTED_EDGE ( 'NONE', *, *, #543, .F. ) ;
#22 = EDGE_LOOP ( 'NONE', ( #82, #610, #499, #271 ) ) ;
#23 = ORIENTED_EDGE ( 'NONE', *, *, #469, .T. ) ;
#24 = DIRECTION ( 'NONE',  ( 0.000000000000000000, 1.000000000000000000, 0.000000000000000000 ) ) ;
#25 = SURFACE_STYLE_FILL_AREA ( #203 ) ;
#26 = EDGE_LOOP ( 'NONE', ( #677, #503, #683, #619 ) ) ;
#27 = ORIENTED_EDGE ( 'NONE', *, *, #764, .F. ) ;
#28 = VERTEX_POINT ( 'NONE', #210 ) ;
#29 = ADVANCED_FACE ( 'NONE', ( #57 ), #400, .F. ) ;
#30 = DIRECTION ( 'NONE',  ( 1.000000000000000000, 0.000000000000000000, 0.000000000000000000 ) ) ;
#31 = VERTEX_POINT ( 'NONE', #517 ) ;
#32 = PRESENTATION_STYLE_ASSIGNMENT (( #388 ) ) ;
#33 = VECTOR ( 'NONE', #416, 1000.000000000000000 ) ;
#34 = LINE ( 'NONE', #395, #120 ) ;
#35 = CARTESIAN_POINT ( 'NONE',  ( -45.50000000000000711, -6.000000000000000000, 10.00000000000000178 ) ) ;
#36 = DIRECTION ( 'NONE',  ( 1.000000000000000000, 0.000000000000000000, 0.000000000000000000 ) ) ;
#37 = ORIENTED_EDGE ( 'NONE', *, *, #269, .F. ) ;
#38 = CARTESIAN_POINT ( 'NONE',  ( 13.90000000000000213, -5.000000000000000888, 5.000000000000000888 ) ) ;
#39 = DIRECTION ( 'NONE',  ( 0.000000000000000000, 1.000000000000000000, 0.000000000000000000 ) ) ;
#40 = VECTOR ( 'NONE', #729, 1000.000000000000000 ) ;
#41 = CARTESIAN_POINT ( 'NONE',  ( 27.75000000000000355, -3.250000000000000444, 4.000000000000000000 ) ) ;
#42 = ORIENTED_EDGE ( 'NONE', *, *, #764, .T. ) ;
#43 = PLANE ( 'NONE',  #420 ) ;
#44 = LINE ( 'NONE', #456, #760 ) ;
#45 = VECTOR ( 'NONE', #481, 1000.000000000000000 ) ;
#46 = EDGE_CURVE ( 'NONE', #731, #31, #761, .T. ) ;
#47 = ADVANCED_FACE ( 'NONE', ( #221 ), #687, .F. ) ;
#48 = DIRECTION ( 'NONE',  ( 0.000000000000000000, 0.000000000000000000, 1.000000000000000000 ) ) ;
#49 = VECTOR ( 'NONE', #593, 1000.000000000000000 ) ;
#50 = CARTESIAN_POINT ( 'NONE',  ( -44.50000000000000711, 6.000000000000000000, 5.000000000000000888 ) ) ;
#51 = ADVANCED_FACE ( 'NONE', ( #579 ), #154, .F. ) ;
#52 = CARTESIAN_POINT ( 'NONE',  ( -33.12500000000000000, -3.250000000000000444, 4.000000000000000000 ) ) ;
#53 = DIRECTION ( 'NONE',  ( 1.000000000000000000, 0.000000000000000000, 0.000000000000000000 ) ) ;
#54 = CARTESIAN_POINT ( 'NONE',  ( 46.50000000000000711, -0.8250000000000000666, 5.000000000000000888 ) ) ;
#55 = VECTOR ( 'NONE', #48, 1000.000000000000000 ) ;
#56 = CARTESIAN_POINT ( 'NONE',  ( -46.50000000000000711, -6.000000000000000000, 5.000000000000000888 ) ) ;
#57 = FACE_OUTER_BOUND ( 'NONE', #270, .T. ) ;
#58 = CARTESIAN_POINT ( 'NONE',  ( -45.50000000000000711, 0.000000000000000000, 10.00000000000000178 ) ) ;
#59 = PLANE ( 'NONE',  #495 ) ;
#60 = FACE_OUTER_BOUND ( 'NONE', #168, .T. ) ;
#61 = LINE ( 'NONE', #542, #649 ) ;
#62 = ADVANCED_FACE ( 'NONE', ( #158 ), #625, .T. ) ;
#63 = FACE_BOUND ( 'NONE', #617, .T. ) ;
#64 = EDGE_CURVE ( 'NONE', #509, #671, #275, .T. ) ;
#65 = PRODUCT_RELATED_PRODUCT_CATEGORY ( 'part', '', ( #493 ) ) ;
#66 = DIRECTION ( 'NONE',  ( 0.000000000000000000, 1.000000000000000000, 0.000000000000000000 ) ) ;
#67 = AXIS2_PLACEMENT_3D ( 'NONE', #96, #396, #284 ) ;
#68 = ORIENTED_EDGE ( 'NONE', *, *, #79, .T. ) ;
#69 = CARTESIAN_POINT ( 'NONE',  ( 46.50000000000000711, -6.000000000000000000, 7.500000000000000000 ) ) ;
#70 = EDGE_CURVE ( 'NONE', #261, #624, #392, .T. ) ;
#71 = CARTESIAN_POINT ( 'NONE',  ( -44.50000000000000711, -6.000000000000000000, 7.500000000000000000 ) ) ;
#72 = ORIENTED_EDGE ( 'NONE', *, *, #173, .F. ) ;
#73 = AXIS2_PLACEMENT_3D ( 'NONE', #187, #425, #128 ) ;
#74 = CARTESIAN_POINT ( 'NONE',  ( -27.50000000000000355, -3.250000000000000444, 3.000000000000000000 ) ) ;
#75 = LINE ( 'NONE', #734, #112 ) ;
#76 = ORIENTED_EDGE ( 'NONE', *, *, #244, .T. ) ;
#77 = AXIS2_PLACEMENT_3D ( 'NONE', #123, #362, #547 ) ;
#78 = CARTESIAN_POINT ( 'NONE',  ( -48.00000000000000000, -9.000000000000000000, 5.000000000000000888 ) ) ;
#79 = EDGE_CURVE ( 'NONE', #280, #379, #474, .T. ) ;
#80 = DIRECTION ( 'NONE',  ( 0.000000000000000000, 0.000000000000000000, -1.000000000000000000 ) ) ;
#81 = EDGE_LOOP ( 'NONE', ( #772, #321, #297, #698 ) ) ;
#82 = ORIENTED_EDGE ( 'NONE', *, *, #616, .T. ) ;
#83 = MECHANICAL_DESIGN_GEOMETRIC_PRESENTATION_REPRESENTATION (  '', ( #411 ), #546 ) ;
#84 = ORIENTED_EDGE ( 'NONE', *, *, #419, .F. ) ;
#85 = ORIENTED_EDGE ( 'NONE', *, *, #265, .F. ) ;
#86 = ORIENTED_EDGE ( 'NONE', *, *, #405, .F. ) ;
#87 = ORIENTED_EDGE ( 'NONE', *, *, #676, .T. ) ;
#88 = SHAPE_DEFINITION_REPRESENTATION ( #373, #159 ) ;
#89 = ORIENTED_EDGE ( 'NONE', *, *, #735, .T. ) ;
#90 = DIRECTION ( 'NONE',  ( 0.000000000000000000, 1.000000000000000000, 0.000000000000000000 ) ) ;
#91 = DIRECTION ( 'NONE',  ( 0.000000000000000000, 1.000000000000000000, 0.000000000000000000 ) ) ;
#92 = VERTEX_POINT ( 'NONE', #178 ) ;
#93 = CARTESIAN_POINT ( 'NONE',  ( -33.12500000000000000, -3.250000000000000444, 5.000000000000000888 ) ) ;
#94 = PLANE ( 'NONE',  #393 ) ;
#95 = VECTOR ( 'NONE', #766, 1000.000000000000000 ) ;
#96 = CARTESIAN_POINT ( 'NONE',  ( -45.50000000000000711, 6.000000000000000000, 7.500000000000000000 ) ) ;
#97 = ORIENTED_EDGE ( 'NONE', *, *, #361, .F. ) ;
#98 = LINE ( 'NONE', #659, #655 ) ;
#99 = LINE ( 'NONE', #334, #430 ) ;
#100 = DIRECTION ( 'NONE',  ( 1.000000000000000000, 0.000000000000000000, 0.000000000000000000 ) ) ;
#101 = ORIENTED_EDGE ( 'NONE', *, *, #283, .F. ) ;
#102 = DIRECTION ( 'NONE',  ( 1.000000000000000000, 0.000000000000000000, 0.000000000000000000 ) ) ;
#103 = FACE_OUTER_BOUND ( 'NONE', #26, .T. ) ;
#104 = ADVANCED_FACE ( 'NONE', ( #690 ), #749, .T. ) ;
#105 = LINE ( 'NONE', #592, #33 ) ;
#106 = CARTESIAN_POINT ( 'NONE',  ( -33.12500000000000000, -4.125000000000000000, 4.000000000000000000 ) ) ;
#107 =( LENGTH_UNIT ( ) NAMED_UNIT ( * ) SI_UNIT ( .MILLI., .METRE. ) );
#108 = DIRECTION ( 'NONE',  ( 0.000000000000000000, 0.000000000000000000, 1.000000000000000000 ) ) ;
#109 = AXIS2_PLACEMENT_3D ( 'NONE', #41, #453, #534 ) ;
#110 = EDGE_CURVE ( 'NONE', #92, #727, #105, .T. ) ;
#111 = FACE_OUTER_BOUND ( 'NONE', #160, .T. ) ;
#112 = VECTOR ( 'NONE', #726, 1000.000000000000000 ) ;
#113 = FACE_OUTER_BOUND ( 'NONE', #208, .T. ) ;
#114 =( NAMED_UNIT ( * ) SI_UNIT ( $, .STERADIAN. ) SOLID_ANGLE_UNIT ( ) );
#115 = EDGE_CURVE ( 'NONE', #460, #212, #652, .T. ) ;
#116 = CARTESIAN_POINT ( 'NONE',  ( 45.50000000000000711, 6.000000000000000000, 10.00000000000000178 ) ) ;
#117 = FACE_OUTER_BOUND ( 'NONE', #513, .T. ) ;
#118 = CARTESIAN_POINT ( 'NONE',  ( -33.12500000000000000, -5.000000000000000888, 4.000000000000000000 ) ) ;
#119 = AXIS2_PLACEMENT_3D ( 'NONE', #323, #24, #213 ) ;
#120 = VECTOR ( 'NONE', #225, 1000.000000000000000 ) ;
#121 = CARTESIAN_POINT ( 'NONE',  ( 44.50000000000000711, -6.000000000000000000, 7.500000000000000000 ) ) ;
#122 =( NAMED_UNIT ( * ) SI_UNIT ( $, .STERADIAN. ) SOLID_ANGLE_UNIT ( ) );
#123 = CARTESIAN_POINT ( 'NONE',  ( 45.50000000000000711, 6.000000000000000000, 7.500000000000000000 ) ) ;
#124 = DIRECTION ( 'NONE',  ( 0.000000000000000000, 0.000000000000000000, 1.000000000000000000 ) ) ;
#125 = EDGE_CURVE ( 'NONE', #668, #454, #596, .T. ) ;
#126 = DIRECTION ( 'NONE',  ( 1.000000000000000000, 0.000000000000000000, 0.000000000000000000 ) ) ;
#127 = ADVANCED_FACE ( 'NONE', ( #10, #63, #194, #670, #601 ), #552, .T. ) ;
#128 = DIRECTION ( 'NONE',  ( 0.000000000000000000, 1.000000000000000000, 0.000000000000000000 ) ) ;
#129 = EDGE_CURVE ( 'NONE', #671, #731, #301, .T. ) ;
#130 = LINE ( 'NONE', #724, #9 ) ;
#131 = DIRECTION ( 'NONE',  ( 0.000000000000000000, 0.000000000000000000, -1.000000000000000000 ) ) ;
#132 = CARTESIAN_POINT ( 'NONE',  ( -13.72500000000000142, -5.000000000000000888, 5.000000000000000888 ) ) ;
#133 = ORIENTED_EDGE ( 'NONE', *, *, #620, .F. ) ;
#134 = EDGE_CURVE ( 'NONE', #454, #558, #250, .T. ) ;
#135 = DIRECTION ( 'NONE',  ( 0.000000000000000000, 0.000000000000000000, 1.000000000000000000 ) ) ;
#136 = DIRECTION ( 'NONE',  ( 0.000000000000000000, 0.000000000000000000, -1.000000000000000000 ) ) ;
#137 = ORIENTED_EDGE ( 'NONE', *, *, #472, .F. ) ;
#138 = VECTOR ( 'NONE', #427, 1000.000000000000000 ) ;
#139 = CARTESIAN_POINT ( 'NONE',  ( -27.50000000000000355, -4.125000000000000000, 3.000000000000000000 ) ) ;
#140 = ORIENTED_EDGE ( 'NONE', *, *, #344, .F. ) ;
#141 = ORIENTED_EDGE ( 'NONE', *, *, #125, .F. ) ;
#142 = VERTEX_POINT ( 'NONE', #612 ) ;
#143 = VERTEX_POINT ( 'NONE', #254 ) ;
#144 = VECTOR ( 'NONE', #131, 1000.000000000000000 ) ;
#145 = ORIENTED_EDGE ( 'NONE', *, *, #567, .T. ) ;
#146 = ORIENTED_EDGE ( 'NONE', *, *, #327, .F. ) ;
#147 = EDGE_CURVE ( 'NONE', #740, #696, #494, .T. ) ;
#148 = ORIENTED_EDGE ( 'NONE', *, *, #404, .T. ) ;
#149 = VECTOR ( 'NONE', #66, 1000.000000000000000 ) ;
#150 = EDGE_LOOP ( 'NONE', ( #742, #146, #570, #519 ) ) ;
#151 = FACE_OUTER_BOUND ( 'NONE', #618, .T. ) ;
#152 =( LENGTH_UNIT ( ) NAMED_UNIT ( * ) SI_UNIT ( .MILLI., .METRE. ) );
#153 = ADVANCED_FACE ( 'NONE', ( #433 ), #721, .F. ) ;
#154 = PLANE ( 'NONE',  #109 ) ;
#155 = ORIENTED_EDGE ( 'NONE', *, *, #202, .T. ) ;
#156 = CYLINDRICAL_SURFACE ( 'NONE', #119, 5.000000000000000888 ) ;
#157 = CARTESIAN_POINT ( 'NONE',  ( 46.50000000000000711, 0.000000000000000000, 7.500000000000000000 ) ) ;
#158 = FACE_OUTER_BOUND ( 'NONE', #434, .T. ) ;
#159 = ADVANCED_BREP_SHAPE_REPRESENTATION ( 'Display_Case_cap', ( #479, #211 ), #586 ) ;
#160 = EDGE_LOOP ( 'NONE', ( #218, #664, #492, #387 ) ) ;
#161 = CARTESIAN_POINT ( 'NONE',  ( 44.50000000000000711, -0.8250000000000000666, 5.000000000000000888 ) ) ;
#162 = PLANE ( 'NONE',  #657 ) ;
#163 = VECTOR ( 'NONE', #170, 1000.000000000000000 ) ;
#164 = DIRECTION ( 'NONE',  ( 0.000000000000000000, 1.000000000000000000, 0.000000000000000000 ) ) ;
#165 = ORIENTED_EDGE ( 'NONE', *, *, #361, .T. ) ;
#166 = DIRECTION ( 'NONE',  ( 1.000000000000000000, 0.000000000000000000, 0.000000000000000000 ) ) ;
#167 = DIRECTION ( 'NONE',  ( -1.000000000000000000, 0.000000000000000000, 0.000000000000000000 ) ) ;
#168 = EDGE_LOOP ( 'NONE', ( #438, #622, #216, #141 ) ) ;
#169 = CARTESIAN_POINT ( 'NONE',  ( -44.50000000000000711, -0.8250000000000000666, 5.000000000000000888 ) ) ;
#170 = DIRECTION ( 'NONE',  ( 0.000000000000000000, 0.000000000000000000, -1.000000000000000000 ) ) ;
#171 = DIRECTION ( 'NONE',  ( 1.000000000000000000, 0.000000000000000000, 0.000000000000000000 ) ) ;
#172 = CARTESIAN_POINT ( 'NONE',  ( 46.50000000000000711, -6.000000000000000000, 5.000000000000000888 ) ) ;
#173 = EDGE_CURVE ( 'NONE', #31, #332, #359, .T. ) ;
#174 = PLANE ( 'NONE',  #459 ) ;
#175 = MECHANICAL_DESIGN_GEOMETRIC_PRESENTATION_REPRESENTATION (  '', ( #577 ), #348 ) ;
#176 = CARTESIAN_POINT ( 'NONE',  ( -44.50000000000000711, 6.000000000000000000, 10.00000000000000178 ) ) ;
#177 = CARTESIAN_POINT ( 'NONE',  ( 46.50000000000000711, 6.000000000000000000, 10.00000000000000178 ) ) ;
#178 = CARTESIAN_POINT ( 'NONE',  ( 48.00000000000000000, -9.000000000000000000, 5.000000000000000888 ) ) ;
#179 = AXIS2_PLACEMENT_3D ( 'NONE', #366, #256, #356 ) ;
#180 = CARTESIAN_POINT ( 'NONE',  ( -44.50000000000000711, 0.000000000000000000, 7.500000000000000000 ) ) ;
#181 = DIRECTION ( 'NONE',  ( 0.000000000000000000, -1.000000000000000000, 0.000000000000000000 ) ) ;
#182 = FACE_OUTER_BOUND ( 'NONE', #738, .T. ) ;
#183 = VECTOR ( 'NONE', #599, 1000.000000000000000 ) ;
#184 = CARTESIAN_POINT ( 'NONE',  ( 0.000000000000000000, 0.000000000000000000, 0.000000000000000000 ) ) ;
#185 = ADVANCED_FACE ( 'NONE', ( #60 ), #723, .F. ) ;
#186 = FACE_OUTER_BOUND ( 'NONE', #12, .T. ) ;
#187 = CARTESIAN_POINT ( 'NONE',  ( -46.50000000000000711, 0.000000000000000000, 7.500000000000000000 ) ) ;
#188 = DIRECTION ( 'NONE',  ( 1.000000000000000000, 0.000000000000000000, 0.000000000000000000 ) ) ;
#189 = ADVANCED_FACE ( 'NONE', ( #7 ), #305, .T. ) ;
#190 = ORIENTED_EDGE ( 'NONE', *, *, #620, .T. ) ;
#191 = DIRECTION ( 'NONE',  ( 0.000000000000000000, 0.000000000000000000, -1.000000000000000000 ) ) ;
#192 = ORIENTED_EDGE ( 'NONE', *, *, #665, .T. ) ;
#193 = VECTOR ( 'NONE', #415, 1000.000000000000000 ) ;
#194 = FACE_BOUND ( 'NONE', #432, .T. ) ;
#195 = CARTESIAN_POINT ( 'NONE',  ( 33.37500000000000000, -5.000000000000000888, 4.000000000000000000 ) ) ;
#196 = ORIENTED_EDGE ( 'NONE', *, *, #232, .T. ) ;
#197 = LINE ( 'NONE', #264, #694 ) ;
#198 = ORIENTED_EDGE ( 'NONE', *, *, #464, .T. ) ;
#199 = FACE_OUTER_BOUND ( 'NONE', #568, .T. ) ;
#200 = ORIENTED_EDGE ( 'NONE', *, *, #217, .T. ) ;
#201 = ORIENTED_EDGE ( 'NONE', *, *, #344, .T. ) ;
#202 = EDGE_CURVE ( 'NONE', #351, #258, #1, .T. ) ;
#203 = FILL_AREA_STYLE ('',( #501 ) ) ;
#204 = ORIENTED_EDGE ( 'NONE', *, *, #115, .T. ) ;
#205 = ORIENTED_EDGE ( 'NONE', *, *, #750, .F. ) ;
#206 = ADVANCED_FACE ( 'NONE', ( #182 ), #490, .T. ) ;
#207 = ORIENTED_EDGE ( 'NONE', *, *, #464, .F. ) ;
#208 = EDGE_LOOP ( 'NONE', ( #87, #565, #165, #148 ) ) ;
#209 = ORIENTED_EDGE ( 'NONE', *, *, #598, .F. ) ;
#210 = CARTESIAN_POINT ( 'NONE',  ( 44.50000000000000711, 6.000000000000000000, 10.00000000000000178 ) ) ;
#211 = AXIS2_PLACEMENT_3D ( 'NONE', #233, #701, #36 ) ;
#212 = VERTEX_POINT ( 'NONE', #370 ) ;
#213 = DIRECTION ( 'NONE',  ( 0.000000000000000000, 0.000000000000000000, -1.000000000000000000 ) ) ;
#214 = CARTESIAN_POINT ( 'NONE',  ( 22.77500000000000213, -6.000000000000000000, 5.000000000000000888 ) ) ;
#215 = AXIS2_PLACEMENT_3D ( 'NONE', #184, #124, #600 ) ;
#216 = ORIENTED_EDGE ( 'NONE', *, *, #134, .F. ) ;
#217 = EDGE_CURVE ( 'NONE', #509, #31, #422, .T. ) ;
#218 = ORIENTED_EDGE ( 'NONE', *, *, #202, .F. ) ;
#219 = CARTESIAN_POINT ( 'NONE',  ( -21.87500000000000355, -5.000000000000000888, 3.000000000000000000 ) ) ;
#220 = CARTESIAN_POINT ( 'NONE',  ( -21.87500000000000355, -3.250000000000000444, 3.000000000000000000 ) ) ;
#221 = FACE_OUTER_BOUND ( 'NONE', #751, .T. ) ;
#222 = ORIENTED_EDGE ( 'NONE', *, *, #269, .T. ) ;
#223 = CARTESIAN_POINT ( 'NONE',  ( 45.50000000000000711, -6.000000000000000000, 7.500000000000000000 ) ) ;
#224 = AXIS2_PLACEMENT_3D ( 'NONE', #16, #753, #611 ) ;
#225 = DIRECTION ( 'NONE',  ( 1.000000000000000000, 0.000000000000000000, 0.000000000000000000 ) ) ;
#226 = AXIS2_PLACEMENT_3D ( 'NONE', #660, #358, #235 ) ;
#227 = EDGE_LOOP ( 'NONE', ( #209, #700, #755, #37 ) ) ;
#228 = CARTESIAN_POINT ( 'NONE',  ( 43.00000000000000000, -9.000000000000000000, 5.000000000000000888 ) ) ;
#229 = EDGE_CURVE ( 'NONE', #311, #276, #666, .T. ) ;
#230 = CARTESIAN_POINT ( 'NONE',  ( -46.50000000000000711, 6.000000000000000000, 7.500000000000000000 ) ) ;
#231 = CARTESIAN_POINT ( 'NONE',  ( 44.50000000000000711, -6.000000000000000000, 10.00000000000000178 ) ) ;
#232 = EDGE_CURVE ( 'NONE', #322, #566, #607, .T. ) ;
#233 = CARTESIAN_POINT ( 'NONE',  ( 0.000000000000000000, 0.000000000000000000, 0.000000000000000000 ) ) ;
#234 = DIRECTION ( 'NONE',  ( 0.000000000000000000, 1.000000000000000000, 0.000000000000000000 ) ) ;
#235 = DIRECTION ( 'NONE',  ( 1.000000000000000000, 0.000000000000000000, 0.000000000000000000 ) ) ;
#236 = CARTESIAN_POINT ( 'NONE',  ( -43.00000000000000000, -9.000000000000000000, 5.000000000000000888 ) ) ;
#237 = DIRECTION ( 'NONE',  ( 0.000000000000000000, -1.000000000000000000, 0.000000000000000000 ) ) ;
#238 = ORIENTED_EDGE ( 'NONE', *, *, #720, .T. ) ;
#239 = CARTESIAN_POINT ( 'NONE',  ( -48.00000000000000000, -9.000000000000000000, 5.000000000000000888 ) ) ;
#240 = FACE_OUTER_BOUND ( 'NONE', #150, .T. ) ;
#241 = CARTESIAN_POINT ( 'NONE',  ( 22.12500000000000355, -5.000000000000000888, 5.000000000000000888 ) ) ;
#242 = LINE ( 'NONE', #480, #614 ) ;
#243 = VECTOR ( 'NONE', #135, 1000.000000000000000 ) ;
#244 = EDGE_CURVE ( 'NONE', #575, #312, #242, .T. ) ;
#245 = CARTESIAN_POINT ( 'NONE',  ( -44.50000000000000711, 0.000000000000000000, 10.00000000000000178 ) ) ;
#246 =( LENGTH_UNIT ( ) NAMED_UNIT ( * ) SI_UNIT ( .MILLI., .METRE. ) );
#247 = CARTESIAN_POINT ( 'NONE',  ( -46.50000000000000711, 0.000000000000000000, 10.00000000000000178 ) ) ;
#248 = VECTOR ( 'NONE', #389, 1000.000000000000000 ) ;
#249 = VECTOR ( 'NONE', #355, 1000.000000000000000 ) ;
#250 = LINE ( 'NONE', #13, #243 ) ;
#251 = EDGE_CURVE ( 'NONE', #379, #740, #5, .T. ) ;
#252 = CARTESIAN_POINT ( 'NONE',  ( -44.50000000000000711, -6.000000000000000000, 5.000000000000000888 ) ) ;
#253 = AXIS2_PLACEMENT_3D ( 'NONE', #719, #237, #648 ) ;
#254 = CARTESIAN_POINT ( 'NONE',  ( -43.00000000000000000, 9.000000000000000000, 0.000000000000000000 ) ) ;
#255 = ORIENTED_EDGE ( 'NONE', *, *, #110, .T. ) ;
#256 = DIRECTION ( 'NONE',  ( 1.000000000000000000, 0.000000000000000000, 0.000000000000000000 ) ) ;
#257 = VECTOR ( 'NONE', #166, 1000.000000000000000 ) ;
#258 = VERTEX_POINT ( 'NONE', #219 ) ;
#259 = VECTOR ( 'NONE', #167, 1000.000000000000000 ) ;
#260 = UNCERTAINTY_MEASURE_WITH_UNIT (LENGTH_MEASURE( 1.000000000000000082E-05 ), #246, 'distance_accuracy_value', 'NONE');
#261 = VERTEX_POINT ( 'NONE', #498 ) ;
#262 = EDGE_LOOP ( 'NONE', ( #626, #145, #559, #681 ) ) ;
#263 = VERTEX_POINT ( 'NONE', #78 ) ;
#264 = CARTESIAN_POINT ( 'NONE',  ( -22.72500000000000142, -6.000000000000000000, 5.000000000000000888 ) ) ;
#265 = EDGE_CURVE ( 'NONE', #143, #320, #718, .T. ) ;
#266 = ORIENTED_EDGE ( 'NONE', *, *, #134, .T. ) ;
#267 = EDGE_CURVE ( 'NONE', #727, #447, #374, .T. ) ;
#268 = VERTEX_POINT ( 'NONE', #439 ) ;
#269 = EDGE_CURVE ( 'NONE', #672, #394, #197, .T. ) ;
#270 = EDGE_LOOP ( 'NONE', ( #196, #762, #556, #238 ) ) ;
#271 = ORIENTED_EDGE ( 'NONE', *, *, #419, .T. ) ;
#272 = ORIENTED_EDGE ( 'NONE', *, *, #405, .T. ) ;
#273 = ORIENTED_EDGE ( 'NONE', *, *, #399, .T. ) ;
#274 = ADVANCED_FACE ( 'NONE', ( #151 ), #156, .T. ) ;
#275 = LINE ( 'NONE', #713, #745 ) ;
#276 = VERTEX_POINT ( 'NONE', #93 ) ;
#277 = LINE ( 'NONE', #230, #163 ) ;
#278 = VECTOR ( 'NONE', #306, 1000.000000000000000 ) ;
#279 = ORIENTED_EDGE ( 'NONE', *, *, #638, .F. ) ;
#280 = VERTEX_POINT ( 'NONE', #504 ) ;
#281 = DIRECTION ( 'NONE',  ( -0.000000000000000000, 1.000000000000000000, 0.000000000000000000 ) ) ;
#282 = LINE ( 'NONE', #746, #421 ) ;
#283 = EDGE_CURVE ( 'NONE', #20, #553, #569, .T. ) ;
#284 = DIRECTION ( 'NONE',  ( 1.000000000000000000, 0.000000000000000000, 0.000000000000000000 ) ) ;
#285 = ORIENTED_EDGE ( 'NONE', *, *, #64, .F. ) ;
#286 = SURFACE_STYLE_FILL_AREA ( #640 ) ;
#287 = VECTOR ( 'NONE', #485, 1000.000000000000000 ) ;
#288 = LINE ( 'NONE', #703, #557 ) ;
#289 = CARTESIAN_POINT ( 'NONE',  ( 0.000000000000000000, -9.000000000000000000, 1.884953481907189810 ) ) ;
#290 = CARTESIAN_POINT ( 'NONE',  ( 13.90000000000000213, -3.250000000000000444, 5.000000000000000888 ) ) ;
#291 = APPLICATION_CONTEXT ( 'automotive_design' ) ;
#292 = DIRECTION ( 'NONE',  ( 0.000000000000000000, 0.000000000000000000, 1.000000000000000000 ) ) ;
#293 = CARTESIAN_POINT ( 'NONE',  ( -44.50000000000000711, 6.000000000000000000, 7.500000000000000000 ) ) ;
#294 = VECTOR ( 'NONE', #644, 1000.000000000000000 ) ;
#295 = CARTESIAN_POINT ( 'NONE',  ( -27.50000000000000355, -3.250000000000000444, 4.000000000000000000 ) ) ;
#296 = LINE ( 'NONE', #121, #8 ) ;
#297 = ORIENTED_EDGE ( 'NONE', *, *, #327, .T. ) ;
#298 = DIRECTION ( 'NONE',  ( 1.000000000000000000, 0.000000000000000000, 0.000000000000000000 ) ) ;
#299 = DIRECTION ( 'NONE',  ( 1.000000000000000000, 0.000000000000000000, 0.000000000000000000 ) ) ;
#300 = CARTESIAN_POINT ( 'NONE',  ( 22.12500000000000355, -2.887500000000000178, 5.000000000000000888 ) ) ;
#301 = LINE ( 'NONE', #69, #715 ) ;
#302 = CARTESIAN_POINT ( 'NONE',  ( -13.72500000000000142, -3.250000000000000444, 5.000000000000000888 ) ) ;
#303 = PLANE ( 'NONE',  #514 ) ;
#304 = ADVANCED_FACE ( 'NONE', ( #627 ), #43, .F. ) ;
#305 = PLANE ( 'NONE',  #524 ) ;
#306 = DIRECTION ( 'NONE',  ( 1.000000000000000000, 0.000000000000000000, 0.000000000000000000 ) ) ;
#307 = ORIENTED_EDGE ( 'NONE', *, *, #656, .F. ) ;
#308 = VECTOR ( 'NONE', #80, 1000.000000000000000 ) ;
#309 = DIRECTION ( 'NONE',  ( 0.000000000000000000, 0.000000000000000000, 1.000000000000000000 ) ) ;
#310 = DIRECTION ( 'NONE',  ( 0.000000000000000000, 0.000000000000000000, -1.000000000000000000 ) ) ;
#311 = VERTEX_POINT ( 'NONE', #340 ) ;
#312 = VERTEX_POINT ( 'NONE', #520 ) ;
#313 = LINE ( 'NONE', #604, #685 ) ;
#314 = AXIS2_PLACEMENT_3D ( 'NONE', #228, #526, #576 ) ;
#315 = EDGE_LOOP ( 'NONE', ( #743, #739, #368, #580 ) ) ;
#316 = AXIS2_PLACEMENT_3D ( 'NONE', #473, #711, #126 ) ;
#317 = ORIENTED_EDGE ( 'NONE', *, *, #484, .T. ) ;
#318 = EDGE_CURVE ( 'NONE', #394, #575, #757, .T. ) ;
#319 = LINE ( 'NONE', #609, #138 ) ;
#320 = VERTEX_POINT ( 'NONE', #6 ) ;
#321 = ORIENTED_EDGE ( 'NONE', *, *, #679, .T. ) ;
#322 = VERTEX_POINT ( 'NONE', #357 ) ;
#323 = CARTESIAN_POINT ( 'NONE',  ( -43.00000000000000000, -9.000000000000000000, 5.000000000000000888 ) ) ;
#324 = EDGE_LOOP ( 'NONE', ( #562, #441, #192, #27 ) ) ;
#325 = ORIENTED_EDGE ( 'NONE', *, *, #399, .F. ) ;
#326 = ORIENTED_EDGE ( 'NONE', *, *, #606, .T. ) ;
#327 = EDGE_CURVE ( 'NONE', #696, #280, #2, .T. ) ;
#328 = CARTESIAN_POINT ( 'NONE',  ( 22.12500000000000355, -3.250000000000000444, 3.000000000000000000 ) ) ;
#329 = ORIENTED_EDGE ( 'NONE', *, *, #665, .F. ) ;
#330 = DIRECTION ( 'NONE',  ( 1.000000000000000000, 0.000000000000000000, 0.000000000000000000 ) ) ;
#331 = ORIENTED_EDGE ( 'NONE', *, *, #125, .T. ) ;
#332 = VERTEX_POINT ( 'NONE', #653 ) ;
#333 = DIRECTION ( 'NONE',  ( 0.000000000000000000, 0.000000000000000000, 1.000000000000000000 ) ) ;
#334 = CARTESIAN_POINT ( 'NONE',  ( 43.00000000000000000, 9.000000000000000000, 0.000000000000000000 ) ) ;
#335 = ORIENTED_EDGE ( 'NONE', *, *, #251, .T. ) ;
#336 = ORIENTED_EDGE ( 'NONE', *, *, #629, .F. ) ;
#337 = LINE ( 'NONE', #239, #458 ) ;
#338 = DIRECTION ( 'NONE',  ( 0.000000000000000000, 1.000000000000000000, 0.000000000000000000 ) ) ;
#339 = EDGE_CURVE ( 'NONE', #320, #263, #337, .T. ) ;
#340 = CARTESIAN_POINT ( 'NONE',  ( -21.87500000000000355, -3.250000000000000444, 5.000000000000000888 ) ) ;
#341 = LINE ( 'NONE', #763, #533 ) ;
#342 = EDGE_CURVE ( 'NONE', #508, #268, #633, .T. ) ;
#343 = CLOSED_SHELL ( 'NONE', ( #541, #51, #505, #29, #522, #189, #372, #47, #153, #104, #704, #410, #206, #643, #304, #528, #710, #491, #127, #380, #274, #486, #185, #62, #548, #530 ) ) ;
#344 = EDGE_CURVE ( 'NONE', #142, #20, #461, .T. ) ;
#345 = PLANE ( 'NONE',  #17 ) ;
#346 = VECTOR ( 'NONE', #352, 1000.000000000000000 ) ;
#347 = LINE ( 'NONE', #290, #95 ) ;
#348 =( GEOMETRIC_REPRESENTATION_CONTEXT ( 3 ) GLOBAL_UNCERTAINTY_ASSIGNED_CONTEXT ( ( #669 ) ) GLOBAL_UNIT_ASSIGNED_CONTEXT ( ( #152, #478, #122 ) ) REPRESENTATION_CONTEXT ( 'NONE', 'WORKASPACE' ) );
#349 = LINE ( 'NONE', #771, #684 ) ;
#350 = EDGE_CURVE ( 'NONE', #566, #311, #98, .T. ) ;
#351 = VERTEX_POINT ( 'NONE', #581 ) ;
#352 = DIRECTION ( 'NONE',  ( 1.000000000000000000, 0.000000000000000000, 0.000000000000000000 ) ) ;
#353 = CIRCLE ( 'NONE', #314, 5.000000000000000888 ) ;
#354 = AXIS2_PLACEMENT_3D ( 'NONE', #58, #108, #650 ) ;
#355 = DIRECTION ( 'NONE',  ( 0.000000000000000000, 0.000000000000000000, 1.000000000000000000 ) ) ;
#356 = DIRECTION ( 'NONE',  ( 0.000000000000000000, 1.000000000000000000, 0.000000000000000000 ) ) ;
#357 = CARTESIAN_POINT ( 'NONE',  ( -33.12500000000000000, -3.250000000000000444, 3.000000000000000000 ) ) ;
#358 = DIRECTION ( 'NONE',  ( -0.000000000000000000, 1.000000000000000000, 0.000000000000000000 ) ) ;
#359 = LINE ( 'NONE', #426, #40 ) ;
#360 = CARTESIAN_POINT ( 'NONE',  ( 33.37500000000000000, -3.250000000000000444, 3.000000000000000000 ) ) ;
#361 = EDGE_CURVE ( 'NONE', #624, #92, #353, .T. ) ;
#362 = DIRECTION ( 'NONE',  ( -0.000000000000000000, 1.000000000000000000, 0.000000000000000000 ) ) ;
#363 = LINE ( 'NONE', #132, #278 ) ;
#364 = ORIENTED_EDGE ( 'NONE', *, *, #573, .T. ) ;
#365 = AXIS2_PLACEMENT_3D ( 'NONE', #386, #30, #164 ) ;
#366 = CARTESIAN_POINT ( 'NONE',  ( 33.37500000000000000, -4.125000000000000000, 4.000000000000000000 ) ) ;
#367 = CARTESIAN_POINT ( 'NONE',  ( 33.37500000000000000, -2.887500000000000178, 5.000000000000000888 ) ) ;
#368 = ORIENTED_EDGE ( 'NONE', *, *, #656, .T. ) ;
#369 = PRODUCT_DEFINITION_CONTEXT ( 'detailed design', #291, 'design' ) ;
#370 = CARTESIAN_POINT ( 'NONE',  ( -33.12500000000000000, -5.000000000000000888, 5.000000000000000888 ) ) ;
#371 = EDGE_LOOP ( 'NONE', ( #205, #564, #385, #686 ) ) ;
#372 = ADVANCED_FACE ( 'NONE', ( #465 ), #702, .T. ) ;
#373 = PRODUCT_DEFINITION_SHAPE ( 'NONE', 'NONE',  #510 ) ;
#374 = CIRCLE ( 'NONE', #678, 5.000000000000000888 ) ;
#375 = EDGE_LOOP ( 'NONE', ( #18, #307, #756, #632 ) ) ;
#376 = ORIENTED_EDGE ( 'NONE', *, *, #229, .F. ) ;
#377 = ORIENTED_EDGE ( 'NONE', *, *, #769, .T. ) ;
#378 = DIRECTION ( 'NONE',  ( 1.000000000000000000, 0.000000000000000000, 0.000000000000000000 ) ) ;
#379 = VERTEX_POINT ( 'NONE', #417 ) ;
#380 = ADVANCED_FACE ( 'NONE', ( #538 ), #641, .F. ) ;
#381 = PRESENTATION_STYLE_ASSIGNMENT (( #506 ) ) ;
#382 = VECTOR ( 'NONE', #587, 1000.000000000000000 ) ;
#383 = ORIENTED_EDGE ( 'NONE', *, *, #173, .T. ) ;
#384 = EDGE_CURVE ( 'NONE', #258, #460, #61, .T. ) ;
#385 = ORIENTED_EDGE ( 'NONE', *, *, #769, .F. ) ;
#386 = CARTESIAN_POINT ( 'NONE',  ( 22.12500000000000355, -4.125000000000000000, 4.000000000000000000 ) ) ;
#387 = ORIENTED_EDGE ( 'NONE', *, *, #567, .F. ) ;
#388 = SURFACE_STYLE_USAGE ( .BOTH. , #401 ) ;
#389 = DIRECTION ( 'NONE',  ( 0.000000000000000000, -1.000000000000000000, 0.000000000000000000 ) ) ;
#390 = EDGE_CURVE ( 'NONE', #332, #449, #692, .T. ) ;
#391 = LINE ( 'NONE', #699, #259 ) ;
#392 = LINE ( 'NONE', #463, #409 ) ;
#393 = AXIS2_PLACEMENT_3D ( 'NONE', #527, #582, #642 ) ;
#394 = VERTEX_POINT ( 'NONE', #252 ) ;
#395 = CARTESIAN_POINT ( 'NONE',  ( 0.02500000000000000139, 9.000000000000000000, 5.000000000000000888 ) ) ;
#396 = DIRECTION ( 'NONE',  ( -0.000000000000000000, 1.000000000000000000, 0.000000000000000000 ) ) ;
#397 = ORIENTED_EDGE ( 'NONE', *, *, #404, .F. ) ;
#398 = LINE ( 'NONE', #637, #193 ) ;
#399 = EDGE_CURVE ( 'NONE', #379, #672, #130, .T. ) ;
#400 = PLANE ( 'NONE',  #646 ) ;
#401 = SURFACE_SIDE_STYLE ('',( #286 ) ) ;
#402 = DIRECTION ( 'NONE',  ( 0.000000000000000000, 1.000000000000000000, 0.000000000000000000 ) ) ;
#403 = CARTESIAN_POINT ( 'NONE',  ( 33.37500000000000000, -3.250000000000000444, 5.000000000000000888 ) ) ;
#404 = EDGE_CURVE ( 'NONE', #92, #263, #319, .T. ) ;
#405 = EDGE_CURVE ( 'NONE', #621, #28, #75, .T. ) ;
#406 =( NAMED_UNIT ( * ) SI_UNIT ( $, .STERADIAN. ) SOLID_ANGLE_UNIT ( ) );
#407 = DIRECTION ( 'NONE',  ( 1.000000000000000000, 0.000000000000000000, 0.000000000000000000 ) ) ;
#408 = VECTOR ( 'NONE', #91, 1000.000000000000000 ) ;
#409 = VECTOR ( 'NONE', #639, 1000.000000000000000 ) ;
#410 = ADVANCED_FACE ( 'NONE', ( #199 ), #303, .F. ) ;
#411 = STYLED_ITEM ( 'NONE', ( #32 ), #159 ) ;
#412 = DIRECTION ( 'NONE',  ( 0.000000000000000000, 1.000000000000000000, 0.000000000000000000 ) ) ;
#413 =( NAMED_UNIT ( * ) PLANE_ANGLE_UNIT ( ) SI_UNIT ( $, .RADIAN. ) );
#414 = PRESENTATION_LAYER_ASSIGNMENT (  '', '', ( #577 ) ) ;
#415 = DIRECTION ( 'NONE',  ( -1.000000000000000000, 0.000000000000000000, 0.000000000000000000 ) ) ;
#416 = DIRECTION ( 'NONE',  ( 0.000000000000000000, 1.000000000000000000, 0.000000000000000000 ) ) ;
#417 = CARTESIAN_POINT ( 'NONE',  ( -46.50000000000000711, -6.000000000000000000, 10.00000000000000178 ) ) ;
#418 = LINE ( 'NONE', #300, #475 ) ;
#419 = EDGE_CURVE ( 'NONE', #668, #553, #313, .T. ) ;
#420 = AXIS2_PLACEMENT_3D ( 'NONE', #223, #281, #102 ) ;
#421 = VECTOR ( 'NONE', #466, 1000.000000000000000 ) ;
#422 = LINE ( 'NONE', #725, #15 ) ;
#423 = DIRECTION ( 'NONE',  ( 0.000000000000000000, -1.000000000000000000, 0.000000000000000000 ) ) ;
#424 = FACE_OUTER_BOUND ( 'NONE', #525, .T. ) ;
#425 = DIRECTION ( 'NONE',  ( 1.000000000000000000, 0.000000000000000000, 0.000000000000000000 ) ) ;
#426 = CARTESIAN_POINT ( 'NONE',  ( 22.77500000000000213, 6.000000000000000000, 5.000000000000000888 ) ) ;
#427 = DIRECTION ( 'NONE',  ( -1.000000000000000000, 0.000000000000000000, 0.000000000000000000 ) ) ;
#428 = EDGE_LOOP ( 'NONE', ( #89, #266, #190, #201 ) ) ;
#429 = DIRECTION ( 'NONE',  ( 0.000000000000000000, 0.000000000000000000, -1.000000000000000000 ) ) ;
#430 = VECTOR ( 'NONE', #452, 1000.000000000000000 ) ;
#431 = LINE ( 'NONE', #367, #549 ) ;
#432 = EDGE_LOOP ( 'NONE', ( #377, #376, #364, #207 ) ) ;
#433 = FACE_OUTER_BOUND ( 'NONE', #437, .T. ) ;
#434 = EDGE_LOOP ( 'NONE', ( #101, #140, #445, #19 ) ) ;
#435 = ORIENTED_EDGE ( 'NONE', *, *, #598, .T. ) ;
#436 = DIRECTION ( 'NONE',  ( -1.000000000000000000, 0.000000000000000000, 0.000000000000000000 ) ) ;
#437 = EDGE_LOOP ( 'NONE', ( #325, #335, #326, #435 ) ) ;
#438 = ORIENTED_EDGE ( 'NONE', *, *, #440, .F. ) ;
#439 = CARTESIAN_POINT ( 'NONE',  ( 33.37500000000000000, -5.000000000000000888, 5.000000000000000888 ) ) ;
#440 = EDGE_CURVE ( 'NONE', #268, #668, #673, .T. ) ;
#441 = ORIENTED_EDGE ( 'NONE', *, *, #129, .F. ) ;
#442 = ORIENTED_EDGE ( 'NONE', *, *, #741, .F. ) ;
#443 = ORIENTED_EDGE ( 'NONE', *, *, #342, .F. ) ;
#444 = DIRECTION ( 'NONE',  ( 0.000000000000000000, 0.000000000000000000, -1.000000000000000000 ) ) ;
#445 = ORIENTED_EDGE ( 'NONE', *, *, #484, .F. ) ;
#446 = COLOUR_RGB ( '',0.6274509803921568540, 0.6274509803921568540, 0.6274509803921568540 ) ;
#447 = VERTEX_POINT ( 'NONE', #496 ) ;
#448 = DIRECTION ( 'NONE',  ( 1.000000000000000000, 0.000000000000000000, 0.000000000000000000 ) ) ;
#449 = VERTEX_POINT ( 'NONE', #561 ) ;
#450 = CARTESIAN_POINT ( 'NONE',  ( 22.12500000000000355, -4.125000000000000000, 3.000000000000000000 ) ) ;
#451 = AXIS2_PLACEMENT_3D ( 'NONE', #180, #298, #402 ) ;
#452 = DIRECTION ( 'NONE',  ( 0.000000000000000000, -1.000000000000000000, 0.000000000000000000 ) ) ;
#453 = DIRECTION ( 'NONE',  ( -0.000000000000000000, 1.000000000000000000, 0.000000000000000000 ) ) ;
#454 = VERTEX_POINT ( 'NONE', #360 ) ;
#455 = DIRECTION ( 'NONE',  ( -1.000000000000000000, 0.000000000000000000, 0.000000000000000000 ) ) ;
#456 = CARTESIAN_POINT ( 'NONE',  ( -21.87500000000000355, -4.125000000000000000, 3.000000000000000000 ) ) ;
#457 = CARTESIAN_POINT ( 'NONE',  ( -45.50000000000000711, -6.000000000000000000, 7.500000000000000000 ) ) ;
#458 = VECTOR ( 'NONE', #423, 1000.000000000000000 ) ;
#459 = AXIS2_PLACEMENT_3D ( 'NONE', #628, #292, #407 ) ;
#460 = VERTEX_POINT ( 'NONE', #663 ) ;
#461 = LINE ( 'NONE', #714, #483 ) ;
#462 = DIRECTION ( 'NONE',  ( 0.000000000000000000, 1.000000000000000000, 0.000000000000000000 ) ) ;
#463 = CARTESIAN_POINT ( 'NONE',  ( 0.000000000000000000, -9.000000000000000000, 0.000000000000000000 ) ) ;
#464 = EDGE_CURVE ( 'NONE', #212, #351, #363, .T. ) ;
#465 = FACE_OUTER_BOUND ( 'NONE', #81, .T. ) ;
#466 = DIRECTION ( 'NONE',  ( 0.000000000000000000, -1.000000000000000000, 0.000000000000000000 ) ) ;
#467 = DIRECTION ( 'NONE',  ( 0.000000000000000000, 0.000000000000000000, -1.000000000000000000 ) ) ;
#468 = CARTESIAN_POINT ( 'NONE',  ( -21.87500000000000355, -4.125000000000000000, 4.000000000000000000 ) ) ;
#469 = EDGE_CURVE ( 'NONE', #558, #268, #431, .T. ) ;
#470 = FACE_OUTER_BOUND ( 'NONE', #502, .T. ) ;
#471 = CARTESIAN_POINT ( 'NONE',  ( -46.50000000000000711, 6.000000000000000000, 10.00000000000000178 ) ) ;
#472 = EDGE_CURVE ( 'NONE', #280, #394, #667, .T. ) ;
#473 = CARTESIAN_POINT ( 'NONE',  ( 27.75000000000000355, -4.125000000000000000, 3.000000000000000000 ) ) ;
#474 = LINE ( 'NONE', #35, #708 ) ;
#475 = VECTOR ( 'NONE', #412, 1000.000000000000000 ) ;
#476 = DIRECTION ( 'NONE',  ( 0.000000000000000000, 0.000000000000000000, -1.000000000000000000 ) ) ;
#477 = CARTESIAN_POINT ( 'NONE',  ( -33.12500000000000000, -2.887500000000000178, 5.000000000000000888 ) ) ;
#478 =( NAMED_UNIT ( * ) PLANE_ANGLE_UNIT ( ) SI_UNIT ( $, .RADIAN. ) );
#479 = MANIFOLD_SOLID_BREP ( 'Scale1', #343 ) ;
#480 = CARTESIAN_POINT ( 'NONE',  ( -22.72500000000000142, 6.000000000000000000, 5.000000000000000888 ) ) ;
#481 = DIRECTION ( 'NONE',  ( 0.000000000000000000, -1.000000000000000000, 0.000000000000000000 ) ) ;
#482 = PLANE ( 'NONE',  #226 ) ;
#483 = VECTOR ( 'NONE', #476, 1000.000000000000000 ) ;
#484 = EDGE_CURVE ( 'NONE', #508, #142, #418, .T. ) ;
#485 = DIRECTION ( 'NONE',  ( 0.000000000000000000, 1.000000000000000000, 0.000000000000000000 ) ) ;
#486 = ADVANCED_FACE ( 'NONE', ( #186 ), #594, .T. ) ;
#487 = EDGE_CURVE ( 'NONE', #261, #143, #591, .T. ) ;
#488 = DIRECTION ( 'NONE',  ( 0.000000000000000000, 0.000000000000000000, 1.000000000000000000 ) ) ;
#489 = CARTESIAN_POINT ( 'NONE',  ( 44.50000000000000711, 0.000000000000000000, 7.500000000000000000 ) ) ;
#490 = PLANE ( 'NONE',  #77 ) ;
#491 = ADVANCED_FACE ( 'NONE', ( #768 ), #59, .T. ) ;
#492 = ORIENTED_EDGE ( 'NONE', *, *, #350, .F. ) ;
#493 = PRODUCT ( 'Display_Case_cap', 'Display_Case_cap', '', ( #697 ) ) ;
#494 = LINE ( 'NONE', #658, #516 ) ;
#495 = AXIS2_PLACEMENT_3D ( 'NONE', #774, #532, #53 ) ;
#496 = CARTESIAN_POINT ( 'NONE',  ( 43.00000000000000000, 9.000000000000000000, 0.000000000000000000 ) ) ;
#497 = ORIENTED_EDGE ( 'NONE', *, *, #390, .F. ) ;
#498 = CARTESIAN_POINT ( 'NONE',  ( -43.00000000000000000, -9.000000000000000000, 0.000000000000000000 ) ) ;
#499 = ORIENTED_EDGE ( 'NONE', *, *, #440, .T. ) ;
#500 = ORIENTED_EDGE ( 'NONE', *, *, #147, .T. ) ;
#501 = FILL_AREA_STYLE_COLOUR ( '', #748 ) ;
#502 = EDGE_LOOP ( 'NONE', ( #329, #285, #442, #86 ) ) ;
#503 = ORIENTED_EDGE ( 'NONE', *, *, #217, .F. ) ;
#504 = CARTESIAN_POINT ( 'NONE',  ( -44.50000000000000711, -6.000000000000000000, 10.00000000000000178 ) ) ;
#505 = ADVANCED_FACE ( 'NONE', ( #424 ), #4, .T. ) ;
#506 = SURFACE_STYLE_USAGE ( .BOTH. , #680 ) ;
#507 = ORIENTED_EDGE ( 'NONE', *, *, #283, .T. ) ;
#508 = VERTEX_POINT ( 'NONE', #241 ) ;
#509 = VERTEX_POINT ( 'NONE', #177 ) ;
#510 = PRODUCT_DEFINITION ( 'UNKNOWN', '', #747, #369 ) ;
#511 = VECTOR ( 'NONE', #234, 1000.000000000000000 ) ;
#512 = DIRECTION ( 'NONE',  ( 0.000000000000000000, -1.000000000000000000, 0.000000000000000000 ) ) ;
#513 = EDGE_LOOP ( 'NONE', ( #204, #198, #155, #691 ) ) ;
#514 = AXIS2_PLACEMENT_3D ( 'NONE', #489, #545, #550 ) ;
#515 = DIRECTION ( 'NONE',  ( 1.000000000000000000, 0.000000000000000000, 0.000000000000000000 ) ) ;
#516 = VECTOR ( 'NONE', #603, 1000.000000000000000 ) ;
#517 = CARTESIAN_POINT ( 'NONE',  ( 46.50000000000000711, 6.000000000000000000, 5.000000000000000888 ) ) ;
#518 = APPLICATION_PROTOCOL_DEFINITION ( 'draft international standard', 'automotive_design', 1998, #583 ) ;
#519 = ORIENTED_EDGE ( 'NONE', *, *, #251, .F. ) ;
#520 = CARTESIAN_POINT ( 'NONE',  ( -46.50000000000000711, 6.000000000000000000, 5.000000000000000888 ) ) ;
#521 = DIRECTION ( 'NONE',  ( 0.000000000000000000, 1.000000000000000000, 0.000000000000000000 ) ) ;
#522 = ADVANCED_FACE ( 'NONE', ( #117 ), #482, .T. ) ;
#523 = ORIENTED_EDGE ( 'NONE', *, *, #735, .F. ) ;
#524 = AXIS2_PLACEMENT_3D ( 'NONE', #139, #488, #188 ) ;
#525 = EDGE_LOOP ( 'NONE', ( #84, #331, #523, #507 ) ) ;
#526 = DIRECTION ( 'NONE',  ( 0.000000000000000000, -1.000000000000000000, 0.000000000000000000 ) ) ;
#527 = CARTESIAN_POINT ( 'NONE',  ( 27.75000000000000355, -5.000000000000000888, 4.000000000000000000 ) ) ;
#528 = ADVANCED_FACE ( 'NONE', ( #470 ), #174, .T. ) ;
#529 = FACE_OUTER_BOUND ( 'NONE', #22, .T. ) ;
#530 = ADVANCED_FACE ( 'NONE', ( #706 ), #754, .T. ) ;
#531 = CARTESIAN_POINT ( 'NONE',  ( 33.37500000000000000, -5.000000000000000888, 3.000000000000000000 ) ) ;
#532 = DIRECTION ( 'NONE',  ( -0.000000000000000000, 1.000000000000000000, 0.000000000000000000 ) ) ;
#533 = VECTOR ( 'NONE', #758, 1000.000000000000000 ) ;
#534 = DIRECTION ( 'NONE',  ( 1.000000000000000000, 0.000000000000000000, 0.000000000000000000 ) ) ;
#535 = DIRECTION ( 'NONE',  ( 0.000000000000000000, 0.000000000000000000, 1.000000000000000000 ) ) ;
#536 = DIRECTION ( 'NONE',  ( 0.000000000000000000, 1.000000000000000000, 0.000000000000000000 ) ) ;
#537 = DIRECTION ( 'NONE',  ( 1.000000000000000000, 0.000000000000000000, 0.000000000000000000 ) ) ;
#538 = FACE_OUTER_BOUND ( 'NONE', #375, .T. ) ;
#539 = CARTESIAN_POINT ( 'NONE',  ( 48.00000000000000000, 9.000000000000000000, 5.000000000000000888 ) ) ;
#540 = DIRECTION ( 'NONE',  ( -1.000000000000000000, 0.000000000000000000, 0.000000000000000000 ) ) ;
#541 = ADVANCED_FACE ( 'NONE', ( #529 ), #94, .T. ) ;
#542 = CARTESIAN_POINT ( 'NONE',  ( -27.50000000000000355, -5.000000000000000888, 3.000000000000000000 ) ) ;
#543 = EDGE_CURVE ( 'NONE', #28, #332, #288, .T. ) ;
#544 = CARTESIAN_POINT ( 'NONE',  ( 0.05000000000000000278, -1.650000000000000133, 5.000000000000000888 ) ) ;
#545 = DIRECTION ( 'NONE',  ( 1.000000000000000000, 0.000000000000000000, 0.000000000000000000 ) ) ;
#546 =( GEOMETRIC_REPRESENTATION_CONTEXT ( 3 ) GLOBAL_UNCERTAINTY_ASSIGNED_CONTEXT ( ( #555 ) ) GLOBAL_UNIT_ASSIGNED_CONTEXT ( ( #107, #413, #114 ) ) REPRESENTATION_CONTEXT ( 'NONE', 'WORKASPACE' ) );
#547 = DIRECTION ( 'NONE',  ( 1.000000000000000000, 0.000000000000000000, 0.000000000000000000 ) ) ;
#548 = ADVANCED_FACE ( 'NONE', ( #111 ), #162, .F. ) ;
#549 = VECTOR ( 'NONE', #730, 1000.000000000000000 ) ;
#550 = DIRECTION ( 'NONE',  ( 0.000000000000000000, 1.000000000000000000, 0.000000000000000000 ) ) ;
#551 = EDGE_LOOP ( 'NONE', ( #497, #72, #615, #336 ) ) ;
#552 = PLANE ( 'NONE',  #585 ) ;
#553 = VERTEX_POINT ( 'NONE', #572 ) ;
#554 = VECTOR ( 'NONE', #717, 1000.000000000000000 ) ;
#555 = UNCERTAINTY_MEASURE_WITH_UNIT (LENGTH_MEASURE( 1.000000000000000082E-05 ), #107, 'distance_accuracy_value', 'NONE');
#556 = ORIENTED_EDGE ( 'NONE', *, *, #229, .T. ) ;
#557 = VECTOR ( 'NONE', #645, 1000.000000000000000 ) ;
#558 = VERTEX_POINT ( 'NONE', #403 ) ;
#559 = ORIENTED_EDGE ( 'NONE', *, *, #232, .F. ) ;
#560 = ORIENTED_EDGE ( 'NONE', *, *, #339, .F. ) ;
#561 = CARTESIAN_POINT ( 'NONE',  ( 44.50000000000000711, -6.000000000000000000, 5.000000000000000888 ) ) ;
#562 = ORIENTED_EDGE ( 'NONE', *, *, #629, .T. ) ;
#563 = ORIENTED_EDGE ( 'NONE', *, *, #110, .F. ) ;
#564 = ORIENTED_EDGE ( 'NONE', *, *, #720, .F. ) ;
#565 = ORIENTED_EDGE ( 'NONE', *, *, #70, .T. ) ;
#566 = VERTEX_POINT ( 'NONE', #220 ) ;
#567 = EDGE_CURVE ( 'NONE', #258, #566, #44, .T. ) ;
#568 = EDGE_LOOP ( 'NONE', ( #42, #272, #675, #613 ) ) ;
#569 = LINE ( 'NONE', #450, #248 ) ;
#570 = ORIENTED_EDGE ( 'NONE', *, *, #147, .F. ) ;
#571 = ORIENTED_EDGE ( 'NONE', *, *, #676, .F. ) ;
#572 = CARTESIAN_POINT ( 'NONE',  ( 22.12500000000000355, -5.000000000000000888, 3.000000000000000000 ) ) ;
#573 = EDGE_CURVE ( 'NONE', #311, #351, #282, .T. ) ;
#574 = DIRECTION ( 'NONE',  ( -0.000000000000000000, 1.000000000000000000, 0.000000000000000000 ) ) ;
#575 = VERTEX_POINT ( 'NONE', #50 ) ;
#576 = DIRECTION ( 'NONE',  ( 0.000000000000000000, 0.000000000000000000, -1.000000000000000000 ) ) ;
#577 = STYLED_ITEM ( 'NONE', ( #381 ), #479 ) ;
#578 = DIRECTION ( 'NONE',  ( 1.000000000000000000, 0.000000000000000000, 0.000000000000000000 ) ) ;
#579 = FACE_OUTER_BOUND ( 'NONE', #428, .T. ) ;
#580 = ORIENTED_EDGE ( 'NONE', *, *, #265, .T. ) ;
#581 = CARTESIAN_POINT ( 'NONE',  ( -21.87500000000000355, -5.000000000000000888, 5.000000000000000888 ) ) ;
#582 = DIRECTION ( 'NONE',  ( -0.000000000000000000, 1.000000000000000000, 0.000000000000000000 ) ) ;
#583 = APPLICATION_CONTEXT ( 'automotive_design' ) ;
#584 = LINE ( 'NONE', #693, #55 ) ;
#585 = AXIS2_PLACEMENT_3D ( 'NONE', #544, #309, #661 ) ;
#586 =( GEOMETRIC_REPRESENTATION_CONTEXT ( 3 ) GLOBAL_UNCERTAINTY_ASSIGNED_CONTEXT ( ( #260 ) ) GLOBAL_UNIT_ASSIGNED_CONTEXT ( ( #246, #765, #406 ) ) REPRESENTATION_CONTEXT ( 'NONE', 'WORKASPACE' ) );
#587 = DIRECTION ( 'NONE',  ( 0.000000000000000000, 0.000000000000000000, -1.000000000000000000 ) ) ;
#588 = LINE ( 'NONE', #214, #770 ) ;
#589 = VECTOR ( 'NONE', #536, 1000.000000000000000 ) ;
#590 = LINE ( 'NONE', #597, #49 ) ;
#591 = LINE ( 'NONE', #651, #589 ) ;
#592 = CARTESIAN_POINT ( 'NONE',  ( 48.00000000000000000, 9.000000000000000000, 5.000000000000000888 ) ) ;
#593 = DIRECTION ( 'NONE',  ( 0.000000000000000000, -1.000000000000000000, 0.000000000000000000 ) ) ;
#594 = CYLINDRICAL_SURFACE ( 'NONE', #253, 5.000000000000000888 ) ;
#595 = CIRCLE ( 'NONE', #630, 5.000000000000000888 ) ;
#596 = LINE ( 'NONE', #716, #149 ) ;
#597 = CARTESIAN_POINT ( 'NONE',  ( -33.12500000000000000, -4.125000000000000000, 3.000000000000000000 ) ) ;
#598 = EDGE_CURVE ( 'NONE', #312, #672, #341, .T. ) ;
#599 = DIRECTION ( 'NONE',  ( -1.000000000000000000, 0.000000000000000000, 0.000000000000000000 ) ) ;
#600 = DIRECTION ( 'NONE',  ( 1.000000000000000000, 0.000000000000000000, 0.000000000000000000 ) ) ;
#601 = FACE_OUTER_BOUND ( 'NONE', #744, .T. ) ;
#602 = EDGE_CURVE ( 'NONE', #320, #727, #34, .T. ) ;
#603 = DIRECTION ( 'NONE',  ( 1.000000000000000000, 0.000000000000000000, 0.000000000000000000 ) ) ;
#604 = CARTESIAN_POINT ( 'NONE',  ( 27.75000000000000355, -5.000000000000000888, 3.000000000000000000 ) ) ;
#605 = ORIENTED_EDGE ( 'NONE', *, *, #679, .F. ) ;
#606 = EDGE_CURVE ( 'NONE', #740, #312, #277, .T. ) ;
#607 = LINE ( 'NONE', #74, #759 ) ;
#608 = VECTOR ( 'NONE', #11, 1000.000000000000000 ) ;
#609 = CARTESIAN_POINT ( 'NONE',  ( 0.02500000000000000139, -9.000000000000000000, 5.000000000000000888 ) ) ;
#610 = ORIENTED_EDGE ( 'NONE', *, *, #342, .T. ) ;
#611 = DIRECTION ( 'NONE',  ( 0.000000000000000000, 0.000000000000000000, -1.000000000000000000 ) ) ;
#612 = CARTESIAN_POINT ( 'NONE',  ( 22.12500000000000355, -3.250000000000000444, 5.000000000000000888 ) ) ;
#613 = ORIENTED_EDGE ( 'NONE', *, *, #390, .T. ) ;
#614 = VECTOR ( 'NONE', #540, 1000.000000000000000 ) ;
#615 = ORIENTED_EDGE ( 'NONE', *, *, #46, .F. ) ;
#616 = EDGE_CURVE ( 'NONE', #553, #508, #584, .T. ) ;
#617 = EDGE_LOOP ( 'NONE', ( #317, #133, #23, #443 ) ) ;
#618 = EDGE_LOOP ( 'NONE', ( #560, #85, #674, #571 ) ) ;
#619 = ORIENTED_EDGE ( 'NONE', *, *, #129, .T. ) ;
#620 = EDGE_CURVE ( 'NONE', #558, #142, #347, .T. ) ;
#621 = VERTEX_POINT ( 'NONE', #231 ) ;
#622 = ORIENTED_EDGE ( 'NONE', *, *, #469, .F. ) ;
#623 = APPLICATION_PROTOCOL_DEFINITION ( 'draft international standard', 'automotive_design', 1998, #291 ) ;
#624 = VERTEX_POINT ( 'NONE', #634 ) ;
#625 = PLANE ( 'NONE',  #365 ) ;
#626 = ORIENTED_EDGE ( 'NONE', *, *, #384, .F. ) ;
#627 = FACE_OUTER_BOUND ( 'NONE', #324, .T. ) ;
#628 = CARTESIAN_POINT ( 'NONE',  ( 45.50000000000000711, 0.000000000000000000, 10.00000000000000178 ) ) ;
#629 = EDGE_CURVE ( 'NONE', #449, #731, #588, .T. ) ;
#630 = AXIS2_PLACEMENT_3D ( 'NONE', #236, #181, #467 ) ;
#631 = DIRECTION ( 'NONE',  ( -1.000000000000000000, 0.000000000000000000, 0.000000000000000000 ) ) ;
#632 = ORIENTED_EDGE ( 'NONE', *, *, #70, .F. ) ;
#633 = LINE ( 'NONE', #38, #257 ) ;
#634 = CARTESIAN_POINT ( 'NONE',  ( 43.00000000000000000, -9.000000000000000000, 0.000000000000000000 ) ) ;
#635 = DIRECTION ( 'NONE',  ( -0.000000000000000000, 1.000000000000000000, 0.000000000000000000 ) ) ;
#636 = ORIENTED_EDGE ( 'NONE', *, *, #741, .T. ) ;
#637 = CARTESIAN_POINT ( 'NONE',  ( 45.50000000000000711, -6.000000000000000000, 10.00000000000000178 ) ) ;
#638 = EDGE_CURVE ( 'NONE', #447, #624, #99, .T. ) ;
#639 = DIRECTION ( 'NONE',  ( 1.000000000000000000, 0.000000000000000000, 0.000000000000000000 ) ) ;
#640 = FILL_AREA_STYLE ('',( #752 ) ) ;
#641 = PLANE ( 'NONE',  #215 ) ;
#642 = DIRECTION ( 'NONE',  ( 1.000000000000000000, 0.000000000000000000, 0.000000000000000000 ) ) ;
#643 = ADVANCED_FACE ( 'NONE', ( #103 ), #689, .T. ) ;
#644 = DIRECTION ( 'NONE',  ( 0.000000000000000000, 0.000000000000000000, 1.000000000000000000 ) ) ;
#645 = DIRECTION ( 'NONE',  ( 0.000000000000000000, 0.000000000000000000, -1.000000000000000000 ) ) ;
#646 = AXIS2_PLACEMENT_3D ( 'NONE', #295, #574, #448 ) ;
#647 = PLANE ( 'NONE',  #354 ) ;
#648 = DIRECTION ( 'NONE',  ( 0.000000000000000000, 0.000000000000000000, -1.000000000000000000 ) ) ;
#649 = VECTOR ( 'NONE', #455, 1000.000000000000000 ) ;
#650 = DIRECTION ( 'NONE',  ( 1.000000000000000000, 0.000000000000000000, 0.000000000000000000 ) ) ;
#651 = CARTESIAN_POINT ( 'NONE',  ( -43.00000000000000000, -9.000000000000000000, 0.000000000000000000 ) ) ;
#652 = LINE ( 'NONE', #118, #249 ) ;
#653 = CARTESIAN_POINT ( 'NONE',  ( 44.50000000000000711, 6.000000000000000000, 5.000000000000000888 ) ) ;
#654 = DIRECTION ( 'NONE',  ( -0.000000000000000000, 1.000000000000000000, 0.000000000000000000 ) ) ;
#655 = VECTOR ( 'NONE', #333, 1000.000000000000000 ) ;
#656 = EDGE_CURVE ( 'NONE', #447, #143, #391, .T. ) ;
#657 = AXIS2_PLACEMENT_3D ( 'NONE', #468, #171, #338 ) ;
#658 = CARTESIAN_POINT ( 'NONE',  ( -45.50000000000000711, 6.000000000000000000, 10.00000000000000178 ) ) ;
#659 = CARTESIAN_POINT ( 'NONE',  ( -21.87500000000000355, -3.250000000000000444, 4.000000000000000000 ) ) ;
#660 = CARTESIAN_POINT ( 'NONE',  ( -27.50000000000000355, -5.000000000000000888, 4.000000000000000000 ) ) ;
#661 = DIRECTION ( 'NONE',  ( 1.000000000000000000, 0.000000000000000000, 0.000000000000000000 ) ) ;
#662 = CARTESIAN_POINT ( 'NONE',  ( -21.87500000000000355, -5.000000000000000888, 4.000000000000000000 ) ) ;
#663 = CARTESIAN_POINT ( 'NONE',  ( -33.12500000000000000, -5.000000000000000888, 3.000000000000000000 ) ) ;
#664 = ORIENTED_EDGE ( 'NONE', *, *, #573, .F. ) ;
#665 = EDGE_CURVE ( 'NONE', #671, #621, #398, .T. ) ;
#666 = LINE ( 'NONE', #302, #183 ) ;
#667 = LINE ( 'NONE', #71, #712 ) ;
#668 = VERTEX_POINT ( 'NONE', #531 ) ;
#669 = UNCERTAINTY_MEASURE_WITH_UNIT (LENGTH_MEASURE( 1.000000000000000082E-05 ), #152, 'distance_accuracy_value', 'NONE');
#670 = FACE_BOUND ( 'NONE', #227, .T. ) ;
#671 = VERTEX_POINT ( 'NONE', #705 ) ;
#672 = VERTEX_POINT ( 'NONE', #56 ) ;
#673 = LINE ( 'NONE', #195, #308 ) ;
#674 = ORIENTED_EDGE ( 'NONE', *, *, #487, .F. ) ;
#675 = ORIENTED_EDGE ( 'NONE', *, *, #543, .T. ) ;
#676 = EDGE_CURVE ( 'NONE', #263, #261, #595, .T. ) ;
#677 = ORIENTED_EDGE ( 'NONE', *, *, #46, .T. ) ;
#678 = AXIS2_PLACEMENT_3D ( 'NONE', #732, #90, #444 ) ;
#679 = EDGE_CURVE ( 'NONE', #575, #696, #707, .T. ) ;
#680 = SURFACE_SIDE_STYLE ('',( #25 ) ) ;
#681 = ORIENTED_EDGE ( 'NONE', *, *, #750, .T. ) ;
#682 = AXIS2_PLACEMENT_3D ( 'NONE', #457, #635, #100 ) ;
#683 = ORIENTED_EDGE ( 'NONE', *, *, #64, .T. ) ;
#684 = VECTOR ( 'NONE', #3, 1000.000000000000000 ) ;
#685 = VECTOR ( 'NONE', #436, 1000.000000000000000 ) ;
#686 = ORIENTED_EDGE ( 'NONE', *, *, #115, .F. ) ;
#687 = PLANE ( 'NONE',  #682 ) ;
#688 = ORIENTED_EDGE ( 'NONE', *, *, #339, .T. ) ;
#689 = PLANE ( 'NONE',  #728 ) ;
#690 = FACE_OUTER_BOUND ( 'NONE', #14, .T. ) ;
#691 = ORIENTED_EDGE ( 'NONE', *, *, #384, .T. ) ;
#692 = LINE ( 'NONE', #161, #608 ) ;
#693 = CARTESIAN_POINT ( 'NONE',  ( 22.12500000000000355, -5.000000000000000888, 4.000000000000000000 ) ) ;
#694 = VECTOR ( 'NONE', #378, 1000.000000000000000 ) ;
#695 = AXIS2_PLACEMENT_3D ( 'NONE', #106, #330, #521 ) ;
#696 = VERTEX_POINT ( 'NONE', #176 ) ;
#697 = PRODUCT_CONTEXT ( 'NONE', #583, 'mechanical' ) ;
#698 = ORIENTED_EDGE ( 'NONE', *, *, #472, .T. ) ;
#699 = CARTESIAN_POINT ( 'NONE',  ( 0.000000000000000000, 9.000000000000000000, 0.000000000000000000 ) ) ;
#700 = ORIENTED_EDGE ( 'NONE', *, *, #244, .F. ) ;
#701 = DIRECTION ( 'NONE',  ( 0.000000000000000000, 0.000000000000000000, 1.000000000000000000 ) ) ;
#702 = PLANE ( 'NONE',  #451 ) ;
#703 = CARTESIAN_POINT ( 'NONE',  ( 44.50000000000000711, 6.000000000000000000, 7.500000000000000000 ) ) ;
#704 = ADVANCED_FACE ( 'NONE', ( #240 ), #647, .T. ) ;
#705 = CARTESIAN_POINT ( 'NONE',  ( 46.50000000000000711, -6.000000000000000000, 10.00000000000000178 ) ) ;
#706 = FACE_OUTER_BOUND ( 'NONE', #371, .T. ) ;
#707 = LINE ( 'NONE', #293, #294 ) ;
#708 = VECTOR ( 'NONE', #631, 1000.000000000000000 ) ;
#709 = LINE ( 'NONE', #116, #346 ) ;
#710 = ADVANCED_FACE ( 'NONE', ( #113 ), #345, .F. ) ;
#711 = DIRECTION ( 'NONE',  ( 0.000000000000000000, 0.000000000000000000, 1.000000000000000000 ) ) ;
#712 = VECTOR ( 'NONE', #310, 1000.000000000000000 ) ;
#713 = CARTESIAN_POINT ( 'NONE',  ( 46.50000000000000711, 0.000000000000000000, 10.00000000000000178 ) ) ;
#714 = CARTESIAN_POINT ( 'NONE',  ( 22.12500000000000355, -3.250000000000000444, 4.000000000000000000 ) ) ;
#715 = VECTOR ( 'NONE', #191, 1000.000000000000000 ) ;
#716 = CARTESIAN_POINT ( 'NONE',  ( 33.37500000000000000, -4.125000000000000000, 3.000000000000000000 ) ) ;
#717 = DIRECTION ( 'NONE',  ( 0.000000000000000000, 1.000000000000000000, 0.000000000000000000 ) ) ;
#718 = CIRCLE ( 'NONE', #224, 5.000000000000000888 ) ;
#719 = CARTESIAN_POINT ( 'NONE',  ( 43.00000000000000000, 9.000000000000000000, 5.000000000000000888 ) ) ;
#720 = EDGE_CURVE ( 'NONE', #276, #322, #767, .T. ) ;
#721 = PLANE ( 'NONE',  #73 ) ;
#722 = PRESENTATION_LAYER_ASSIGNMENT (  '', '', ( #411 ) ) ;
#723 = PLANE ( 'NONE',  #179 ) ;
#724 = CARTESIAN_POINT ( 'NONE',  ( -46.50000000000000711, -6.000000000000000000, 7.500000000000000000 ) ) ;
#725 = CARTESIAN_POINT ( 'NONE',  ( 46.50000000000000711, 6.000000000000000000, 7.500000000000000000 ) ) ;
#726 = DIRECTION ( 'NONE',  ( 0.000000000000000000, 1.000000000000000000, 0.000000000000000000 ) ) ;
#727 = VERTEX_POINT ( 'NONE', #539 ) ;
#728 = AXIS2_PLACEMENT_3D ( 'NONE', #157, #578, #462 ) ;
#729 = DIRECTION ( 'NONE',  ( -1.000000000000000000, 0.000000000000000000, 0.000000000000000000 ) ) ;
#730 = DIRECTION ( 'NONE',  ( 0.000000000000000000, -1.000000000000000000, 0.000000000000000000 ) ) ;
#731 = VERTEX_POINT ( 'NONE', #172 ) ;
#732 = CARTESIAN_POINT ( 'NONE',  ( 43.00000000000000000, 9.000000000000000000, 5.000000000000000888 ) ) ;
#733 = ORIENTED_EDGE ( 'NONE', *, *, #606, .F. ) ;
#734 = CARTESIAN_POINT ( 'NONE',  ( 44.50000000000000711, 0.000000000000000000, 10.00000000000000178 ) ) ;
#735 = EDGE_CURVE ( 'NONE', #20, #454, #349, .T. ) ;
#736 = ORIENTED_EDGE ( 'NONE', *, *, #267, .F. ) ;
#737 = ORIENTED_EDGE ( 'NONE', *, *, #602, .F. ) ;
#738 = EDGE_LOOP ( 'NONE', ( #21, #636, #200, #383 ) ) ;
#739 = ORIENTED_EDGE ( 'NONE', *, *, #267, .T. ) ;
#740 = VERTEX_POINT ( 'NONE', #471 ) ;
#741 = EDGE_CURVE ( 'NONE', #28, #509, #709, .T. ) ;
#742 = ORIENTED_EDGE ( 'NONE', *, *, #79, .F. ) ;
#743 = ORIENTED_EDGE ( 'NONE', *, *, #602, .T. ) ;
#744 = EDGE_LOOP ( 'NONE', ( #397, #255, #737, #688 ) ) ;
#745 = VECTOR ( 'NONE', #512, 1000.000000000000000 ) ;
#746 = CARTESIAN_POINT ( 'NONE',  ( -21.87500000000000355, -2.887500000000000178, 5.000000000000000888 ) ) ;
#747 = PRODUCT_DEFINITION_FORMATION_WITH_SPECIFIED_SOURCE ( 'ANY', '', #493, .NOT_KNOWN. ) ;
#748 = COLOUR_RGB ( '',0.6274509803921568540, 0.6274509803921568540, 0.6274509803921568540 ) ;
#749 = PLANE ( 'NONE',  #67 ) ;
#750 = EDGE_CURVE ( 'NONE', #322, #460, #590, .T. ) ;
#751 = EDGE_LOOP ( 'NONE', ( #222, #137, #68, #273 ) ) ;
#752 = FILL_AREA_STYLE_COLOUR ( '', #446 ) ;
#753 = DIRECTION ( 'NONE',  ( 0.000000000000000000, 1.000000000000000000, 0.000000000000000000 ) ) ;
#754 = PLANE ( 'NONE',  #695 ) ;
#755 = ORIENTED_EDGE ( 'NONE', *, *, #318, .F. ) ;
#756 = ORIENTED_EDGE ( 'NONE', *, *, #638, .T. ) ;
#757 = LINE ( 'NONE', #169, #554 ) ;
#758 = DIRECTION ( 'NONE',  ( 0.000000000000000000, -1.000000000000000000, 0.000000000000000000 ) ) ;
#759 = VECTOR ( 'NONE', #537, 1000.000000000000000 ) ;
#760 = VECTOR ( 'NONE', #39, 1000.000000000000000 ) ;
#761 = LINE ( 'NONE', #54, #408 ) ;
#762 = ORIENTED_EDGE ( 'NONE', *, *, #350, .T. ) ;
#763 = CARTESIAN_POINT ( 'NONE',  ( -46.50000000000000711, -0.8250000000000000666, 5.000000000000000888 ) ) ;
#764 = EDGE_CURVE ( 'NONE', #449, #621, #296, .T. ) ;
#765 =( NAMED_UNIT ( * ) PLANE_ANGLE_UNIT ( ) SI_UNIT ( $, .RADIAN. ) );
#766 = DIRECTION ( 'NONE',  ( -1.000000000000000000, 0.000000000000000000, 0.000000000000000000 ) ) ;
#767 = LINE ( 'NONE', #52, #382 ) ;
#768 = FACE_OUTER_BOUND ( 'NONE', #315, .T. ) ;
#769 = EDGE_CURVE ( 'NONE', #212, #276, #773, .T. ) ;
#770 = VECTOR ( 'NONE', #515, 1000.000000000000000 ) ;
#771 = CARTESIAN_POINT ( 'NONE',  ( 27.75000000000000355, -3.250000000000000444, 3.000000000000000000 ) ) ;
#772 = ORIENTED_EDGE ( 'NONE', *, *, #318, .T. ) ;
#773 = LINE ( 'NONE', #477, #511 ) ;
#774 = CARTESIAN_POINT ( 'NONE',  ( 0.000000000000000000, 9.000000000000000000, 1.884953481907189810 ) ) ;
ENDSEC;
END-ISO-10303-21;
